<svg xmlns="http://www.w3.org/2000/svg" xmlns:xlink="http://www.w3.org/1999/xlink" width="64" height="64" viewBox="0 0 64 64">
  <defs>
    <clipPath id="clip-Artboard_1">
      <rect width="64" height="64"/>
    </clipPath>
  </defs>
  <g id="Artboard_1" data-name="Artboard – 1" clip-path="url(#clip-Artboard_1)">
    <g id="Group_6" data-name="Group 6" transform="translate(-6.791 -13.181)">
      <g id="Group_5" data-name="Group 5" transform="translate(11.791 15.181)">
        <path id="Path_1" data-name="Path 1" d="M46.546,114.835c-2.175-2.211-6.077-22.018,15.448-23.822-9.125-1.176-18.936,4.938-20.18,14.566C41.313,109.462,43.414,116.815,46.546,114.835Z" transform="translate(-33.523 -70.103)" fill="#004999" stroke="#004999" stroke-miterlimit="10" stroke-width="1"/>
        <g id="Group_3" data-name="Group 3" transform="translate(0 0)">
          <g id="Group_2" data-name="Group 2">
            <g id="Group_1" data-name="Group 1">
              <path id="Path_2" data-name="Path 2" d="M59.932,20.337A31.024,31.024,0,0,0,11.791,46.214a30.415,30.415,0,0,0,4.528,16.63h0a23.363,23.363,0,0,0,20.6,12.337c.529,0-8.692-2.027-14.992-9.5l.138.07a29.579,29.579,0,0,1-5.743-14.507c-.384-8.61,5.83-15.93,13.545-18.746.589-.184,1.132-.359,1.723-.544.336-.089,7.834-2.156,17.229-4.144-2.073,1.2-5.378,2.718-4.737,6.3.655,1.951,3.689,2.4,4.3,0-4.754,0,5.329-8.07,4.3-10.244-3.708,1.526-14.42,3.29-21.441,5.3a23.233,23.233,0,0,0-3.3,1.082,12.223,12.223,0,0,0-2.057.986,23.525,23.525,0,0,0-8.21,7.357,29.672,29.672,0,0,1,41.607-17.14.646.646,0,0,0,.647-1.116Z" transform="translate(-11.791 -15.181)" fill="#004999" stroke="#004999" stroke-miterlimit="10" stroke-width="1"/>
            </g>
          </g>
        </g>
        <g id="Group_4" data-name="Group 4" transform="translate(30.018 15.848)">
          <path id="Path_3" data-name="Path 3" d="M141.8,93.635h0c.535-11-10.383-21.042-9.7-20.682h0a23.361,23.361,0,0,1,12.482,20.682h0A23.363,23.363,0,0,1,121.221,117h0v0C120.454,117,142.753,110.431,141.8,93.635Z" transform="translate(-121.202 -72.943)" fill="#004999" stroke="#004999" stroke-miterlimit="10" stroke-width="1"/>
        </g>
      </g>
    </g>
  </g>
</svg>
